<svg width="128" height="128" viewBox="0 0 128 128" fill="none" xmlns="http://www.w3.org/2000/svg">
<g clip-path="url(#clip0_1_2)">
<rect width="128" height="128" fill="white"/>
<g clip-path="url(#clip1_1_2)">
<rect width="128" height="128" fill="black"/>
<g filter="url(#filter0_f_1_2)">
<path d="M2.68794 -5.44965C3.35202 -4.402 4.40253 -3.54614 8.79919 2.36474C12.8689 7.83602 20.8471 18.1939 23.2343 21.374C25.6216 24.5542 22.221 20.209 18.9579 16.5537C15.6947 12.8984 12.672 10.0646 10.2175 7.99081C6.10699 4.51783 3.45793 3.14045 2.45609 3.0417C2.07051 3.00369 2.11546 3.88754 2.30438 4.55878C2.69667 5.9526 4.86624 8.36721 7.77158 11.5116C9.90419 13.8196 11.9335 15.2485 14.6872 16.9587C19.0119 19.6448 22.1495 20.979 22.6733 20.6026C23.9481 19.6866 23.2973 16.3219 22.9667 12.376C22.7772 10.1142 21.9749 7.39113 21.0675 4.84645C19.312 -0.0765834 17.3864 -2.67883 16.293 -3.15686C15.0288 -3.70951 13.7597 -2.5901 13.0456 -1.97182C12.3315 -1.35363 11.7561 -0.208571 11.1836 1.12388C10.9077 1.76601 10.9889 2.45633 11.3195 2.79696C11.6502 3.13759 12.3114 3.13759 12.8881 2.9959C14.9851 2.48078 17.2691 -0.280132 18.9994 -2.24804C19.2916 -2.58041 19.5704 -2.86775 19.1024 -2.77759C17.3479 -2.43955 13.4019 0.632978 9.06253 4.49437C6.92547 6.39602 6.5064 7.80618 6.40908 8.85526C6.34691 9.52543 10.9517 6.97895 16.8168 3.11612C18.9844 1.68849 19.5647 1.42587 19.6205 2.13002C19.6764 2.83417 19.2041 4.53444 16.4103 9.51933C13.6166 14.5042 8.51581 22.7222 5.65197 27.5225C2.78813 32.3227 2.31583 33.4563 2.07252 34.1819C1.82922 34.9075 1.82922 35.1909 2.30152 35.0062C3.83842 34.4055 5.44731 31.9678 7.20626 28.0248C9.71432 22.4026 10.8916 18.503 11.2251 18.1195C12.0044 17.223 11.9393 22.8596 12.9883 27.0745C13.166 27.7883 13.5594 28.0348 13.9415 28.1808C14.3236 28.3268 14.7959 28.3268 15.4643 27.3822C18.9702 22.4275 18.3339 19.9342 18.6674 19.5507C19.6869 18.378 19.1926 23.2632 19.6205 24.265C19.784 24.6477 20.1429 24.6057 20.4306 24.1334C22.5374 20.6744 24.1503 16.319 25.0563 14.5973C25.3807 13.9807 25.7762 20.0802 26.3458 27.2262C26.7554 32.3656 28.0661 34.7157 28.494 35.1465C30.6921 37.3593 31.6928 27.3794 31.9776 26.7081C32.8597 24.6292 33.2184 31.0862 34.3133 33.8026C34.5645 34.4258 34.6496 34.8073 34.7455 34.8603C35.9501 35.5255 33.705 30.0614 33.5991 28.7533C33.422 26.5654 35.411 32.9954 36.5503 34.7057C38.2744 37.294 41.6912 40.6151 45.1704 43.8568C48.6625 47.1105 51.6323 47.9801 52.1561 47.983C52.4602 47.9847 52.5855 47.2302 52.5884 46.7493C52.5912 46.2684 52.4023 45.8906 52.0216 46.1682C49.3274 48.1332 49.5399 52.6344 49.1091 55.4668C48.9923 56.235 47.5362 53.9998 46.397 51.6755C44.3256 47.4496 42.7674 43.698 41.5781 41.5111C40.1266 38.8421 39.4241 36.9169 39.2796 37.0071C38.0492 37.7745 40.655 41.0016 42.225 43.9055C44.8698 48.7973 48.4694 51.1173 51.0541 52.4169C51.5702 52.6763 52.1962 52.2795 52.5354 51.9932C53.1416 51.4817 53.1608 47.9172 53.304 46.8795C53.5753 44.9125 53.3526 55.9491 53.5415 59.9765C53.7305 64.0039 54.1083 64.7596 54.4446 65.1016C54.781 65.4437 55.0644 65.3492 55.2576 65.1117C56.8278 63.1809 56.215 57.5463 55.9317 54.8199C55.7993 53.5463 54.4976 58.2762 54.3087 58.717C54.0615 59.2937 53.7419 55.8518 55.7198 54.1171C57.6978 52.3825 62.0429 51.249 65.037 50.6178C68.0311 49.9867 69.5424 49.8922 69.8487 50.1269C72.2093 51.936 65.3776 52.56 65.1372 52.799C64.0935 53.8365 70.8763 50.001 77.4427 47.1443C80.7571 45.7024 84.198 44.6655 86.8471 43.8926C91.2539 42.607 95.785 42.0693 100.784 41.6399C103.134 41.438 105.122 41.4939 105.53 41.8245C105.938 42.1551 104.71 42.8163 101.433 43.8182C98.1551 44.82 92.8654 46.1425 89.6208 46.8709C86.3763 47.5994 85.3372 47.6939 85.0853 47.7898C84.8334 47.8857 85.4002 47.9801 100.05 48.2177C114.7 48.4553 143.416 48.8331 132.563 49.4528C121.71 50.0726 70.4183 50.9227 61.8483 49.5187C53.2782 48.1147 88.9839 44.4307 99.2543 42.7219C109.525 41.013 93.2775 41.3909 85.4746 41.3021C77.6717 41.2134 78.8052 40.6466 80.1448 40.1657C81.4844 39.6849 82.9958 39.307 90.1031 38.4039C97.2105 37.5008 109.868 36.0839 118.231 35.354C126.593 34.6241 130.277 34.6241 131.939 34.6241C133.6 34.6241 133.128 34.6241 122.494 35.427C111.86 36.2299 91.0792 37.8357 82.263 38.6157C73.4468 39.3958 77.2251 39.3013 88.2869 38.4025C99.3487 37.5037 117.579 35.8034 120.217 37.5724C122.855 39.3414 109.347 44.6311 102.861 47.3089C96.3747 49.9867 97.3193 49.8922 100.356 48.7573C103.393 47.6223 108.494 45.4498 111.264 44.2361C114.033 43.0224 114.316 42.8335 113.943 42.9251C113.569 43.0167 112.53 43.3945 112.278 43.4947C109.803 44.479 118.89 40.4463 123.369 39.1138C127.239 37.9623 131.016 38.726 131.683 39.058C132.38 39.4053 132.544 40.3461 133.161 40.9171C134.063 41.7526 136.726 41.7801 139.209 41.7329C139.468 41.728 135.255 41.4939 129.437 41.5411C126.827 41.5623 125.494 42.2524 124.348 42.968C123.196 43.6867 132.687 39.9826 136.358 39.3457C136.597 39.3043 136.46 39.7707 136.222 39.6333C135.985 39.4959 135.607 38.9292 134.279 36.1813C132.951 33.4334 130.684 28.5215 128.807 25.2826C125.949 20.3482 123.582 19.0726 122.725 18.9295C120.726 18.5958 117.482 20.9704 115.617 23.2117C112.762 26.6429 113.177 29.2771 113.319 29.8496C113.377 30.0833 113.744 30.0443 114.031 29.9026C114.67 29.588 116.406 27.2019 119.688 21.7876C124.385 14.0379 125.485 9.04847 125.296 10.1891C125.183 10.8744 124.73 11.7076 124.016 14.3182C123.301 16.9287 122.262 21.2738 121.68 24.5985C121.097 27.9232 121.003 30.0958 121.049 31.0733C121.094 32.0508 121.283 31.7674 121.522 31.3381C121.761 30.9087 122.045 30.3419 123.372 26.7439C124.698 23.1458 127.06 16.5337 128.323 13.5052C129.587 10.4768 129.682 11.2325 129.683 12.8025C129.685 14.3726 129.59 16.734 129.211 20.0759C128.347 27.6905 127.489 32.5202 127.631 32.4329C129.51 31.2753 128.442 25.4959 128.208 19.7811C128.1 17.1649 127.123 15.1998 125.931 13.0916C124.738 10.9835 123.133 8.81089 118.857 8.30567C114.582 7.80046 107.687 9.02843 102.009 11.2196C96.3317 13.4108 92.0811 16.528 89.5607 18.4644C86.3037 20.9668 85.0367 22.5934 84.3182 23.8815C83.9909 24.4682 88.5288 22.1469 94.1492 17.9577C96.7264 16.0368 98.4471 14.1464 100.269 12.0884C104.006 7.86687 106.018 5.14414 106.306 4.85647C106.585 4.57738 105.262 6.27765 101.524 11.4386C98.3515 15.8186 92.2127 23.4951 89.0984 27.6742C85.9841 31.8533 85.9841 32.2311 86.1258 32.4258C87.2821 34.0142 91.5086 30.6225 94.9707 28.0635C97.5524 26.1552 101.55 22.6707 105.484 18.7463C109.419 14.822 113.103 10.4768 115.709 7.05766C121.839 -0.984838 121.286 -2.29813 121.288 -2.72749C121.288 -2.9006 120.911 -2.87348 120.529 -2.77902C120.147 -2.68456 119.675 -2.49564 114.708 1.80514C109.742 6.10591 100.296 14.5128 94.9106 19.5049C89.5249 24.4969 88.4859 25.8193 88.0923 26.5006C87.6987 27.1818 87.9821 27.1818 88.8365 26.9929C91.1223 26.4875 93.6067 25.4701 99.6207 21.2581C104.672 17.72 113.475 10.9062 118.946 6.55388C124.418 2.20158 126.212 0.406847 126.995 -0.234333C127.386 -0.554316 125.786 2.44775 120.805 9.32899C117.343 14.1126 111.574 21.2166 108.56 25.1037C105.546 28.9909 105.357 29.3687 105.496 29.5634C105.635 29.758 106.107 29.758 106.634 29.5691C107.16 29.3802 107.727 29.0023 111.608 25.8794C115.49 22.7566 122.669 16.9001 124.006 16.1029C125.342 15.3057 120.619 19.7453 115.164 24.1577C109.708 28.5701 103.662 32.8208 98.6117 35.9079C93.5609 38.995 89.6881 40.7898 87.5513 41.7615C85.4145 42.7333 85.1311 42.8278 85.1268 42.168C85.1225 41.5082 85.4059 40.0913 87.2994 35.158C89.1929 30.2246 92.6879 21.8177 94.5828 16.7784C96.4777 11.7391 96.6666 10.3222 96.4334 9.63956C96.2001 8.95687 95.5389 9.05133 91.5615 11.7921C87.5842 14.5328 80.3108 19.917 74.5803 23.8242C68.8497 27.7314 64.8824 29.9985 60.3355 32.0637C55.7885 34.1289 50.7822 35.9237 49.2422 35.6202C47.7022 35.3168 49.7803 32.8609 53.9681 28.9036C58.1558 24.9463 64.3901 19.5621 67.8851 16.5995C71.8967 13.199 72.8142 12.7753 73.1963 12.7739C73.5727 12.7725 72.2531 14.8592 70.5872 17.4783C69.1593 19.7231 66.348 22.393 62.1631 26.1041C57.4538 30.2804 53.8364 32.3313 52.929 32.5245C52.6726 32.5791 52.8717 31.9621 55.0472 28.0348C57.2226 24.1076 61.3788 16.7398 63.6144 12.4719C65.8499 8.20406 66.0388 7.25946 65.9945 6.58393C65.9501 5.9084 65.6667 5.53056 64.6234 5.19423C61.8585 4.30296 58.6137 4.37701 53.918 5.13412C50.524 5.68134 45.1604 7.02474 40.3558 8.41301C35.5513 9.80128 31.4895 11.3126 28.7831 12.4218C24.791 14.0579 23.3002 14.9679 23.2014 15.1111C23.093 15.2682 24.0473 15.1597 26.0409 14.4985C28.0346 13.8373 31.3407 12.5148 37.5306 10.5112C43.7206 8.50747 52.6943 5.8626 56.9865 4.5001C61.2786 3.13759 60.6174 3.13759 59.3322 3.37374C58.047 3.60989 56.1578 4.08218 52.8703 4.60887C49.5828 5.13555 44.9543 5.70231 40.0195 5.99428C35.0847 6.28624 29.9839 6.28624 28.2536 5.95563C26.5232 5.62502 28.318 4.96381 33.9183 3.72581C39.5186 2.48782 48.8701 0.693088 53.3097 -0.231471C57.7493 -1.15603 56.9936 -1.15603 52.9676 -0.494813C48.9417 0.166404 41.6683 1.48884 37.6852 2.31178C33.7022 3.13473 33.2299 3.4181 33.2699 3.75301C33.31 4.08791 33.8768 4.46575 35.4912 4.991C37.1056 5.51625 39.7505 6.17747 61.1856 6.89594C82.6208 7.6144 122.766 8.37008 125.027 10.4596C127.289 12.5492 90.4495 15.9497 71.7078 17.7015C52.9662 19.4533 53.4385 19.4533 61.2858 17.8003C69.1331 16.1473 84.3411 12.8412 92.884 10.8547C101.427 8.86814 102.844 8.30138 103.432 7.96218C104.02 7.62299 103.737 7.52853 94.0504 7.00757C84.364 6.48661 65.2832 5.54201 55.7843 4.86648C46.2853 4.19096 46.9466 3.81312 59.4725 1.54036C71.9984 -0.732393 96.369 -4.88861 109.868 -7.07693C123.367 -9.26524 125.256 -9.3597 125.663 -9.03052C126.069 -8.70135 124.936 -7.94567 121.093 -6.4701C117.25 -4.99452 110.733 -2.82195 93.3004 0.847658C75.8684 4.51727 47.7194 9.61809 45.7815 11.2067C43.8437 12.7954 68.9699 10.7173 81.5832 9.83563C94.1964 8.95401 93.5352 9.33185 90.2191 10.66C86.903 11.9882 80.952 14.2552 71.8882 16.9816C62.8244 19.7081 50.828 22.8253 45.0259 24.4311C39.2238 26.0369 39.9794 26.0369 41.455 25.848C42.9306 25.659 45.1032 25.2812 52.3622 24.6615C59.6213 24.0418 71.9011 23.1916 77.7547 22.8009C83.6083 22.4102 82.6637 22.5047 81.2797 22.8839C79.8958 23.2632 78.101 23.9244 73.4926 24.9735C68.8841 26.0226 61.5162 27.4395 57.6262 28.3111C53.7362 29.1827 53.5473 29.4661 54.3001 29.7065C56.6724 30.4642 61.8111 30.3305 68.0955 30.1888C73.6391 30.0638 76.6298 29.3773 76.6355 29.3759C81.3341 28.2012 67.0063 32.5202 65.7168 33.3303C65.308 33.5871 65.6553 33.857 66.2736 33.7654C67.8878 33.5262 72.588 31.9621 79.163 30.4364C83.6072 29.4052 86.1673 29.4718 87.1706 29.6607C87.7287 29.7658 86.465 30.9946 85.1369 31.9921C82.8444 33.714 78.1898 35.4714 72.8084 37.425C70.3772 38.3076 68.4662 38.7174 67.6819 38.9607C66.8976 39.204 67.2754 39.204 67.8007 39.1095C68.3259 39.0151 68.9871 38.8261 69.6111 38.6816C70.2351 38.537 70.8019 38.4426 69.8659 38.7718C66.5064 39.9532 62.3377 40.8241 58.4406 41.1103C53.2341 41.4928 49.2594 41.0187 46.4585 40.1657C41.7379 38.7281 37.0569 35.8779 33.9569 33.6852C32.4826 32.6424 32.2681 31.3867 32.1708 30.1015C32.0741 28.8252 33.7852 27.7601 35.1663 26.8541C36.1532 26.2067 37.5063 26.3231 38.6985 26.4648C39.1542 26.519 39.2295 26.8899 39.2782 27.3665C39.3268 27.8431 39.3268 28.5043 39.0434 28.7505C38.4002 29.3092 36.4758 27.3851 33.9555 24.8161C31.1055 21.911 27.3247 19.2759 24.7915 17.0833C23.8017 16.2266 30.4104 15.446 38.74 15.8238C46.6705 16.1835 50.7736 17.9248 51.2974 18.4C51.5743 18.6511 51.7268 19.064 51.5407 19.2587C51.0034 19.8208 46.5201 20.3035 39.5215 22.1111C29.7311 24.6398 28.6443 26.3203 28.2607 26.8441C28.1186 27.0381 28.6328 27.2734 29.1581 27.3708C30.3286 27.5876 32.915 26.9958 37.4777 25.6662C40.1732 24.8807 43.5517 23.5809 46.0592 22.5705C52.1799 20.104 53.3498 19.6451 53.6374 19.6437C53.3584 20.0201 51.8384 21.0677 49.6945 22.3072C48.7785 22.7909 48.2117 22.9798 47.3416 23.1745" stroke="#00E5F6" stroke-width="10" stroke-linecap="round"/>
</g>
<g filter="url(#filter1_f_1_2)">
<path d="M-4.46809 -1.72851C-3.80401 -1.53959 -2.47012 -0.589272 -1.04035 1.45735C0.338553 3.43116 1.63457 5.23001 3.43503 7.83767C7.10181 13.1484 10.6941 17.1548 12.3128 18.868C15.5212 22.2636 18.0419 25.264 19.2856 26.462C20.6347 27.7614 22.5187 30.4049 24.0558 32.7564C25.6036 35.1242 26.9154 36.5248 29.6318 40.5235C31.2766 42.9447 32.2624 44.2533 33.2642 45.7346C34.0633 46.9161 35.1248 47.7855 36.1266 48.7415C37.4471 50.0016 38.4624 51.7929 39.5615 53.2241C40.7545 54.7774 42.1835 56.5616 43.3299 58.3278C44.3503 59.8998 45.4295 60.9526 46.0034 62.1462C46.8138 63.8317 48.4808 64.96 49.3896 66.0119C49.7795 66.4632 51.3375 66.3969 53.1494 66.2552C54.7462 66.1303 54.9728 64.1127 55.6397 62.9191C56.3903 61.5757 56.6902 60.3915 57.4044 59.0076C58.0872 57.6843 59.6442 57.6207 61.0282 57.001C62.1613 56.4937 63.3653 56.4758 64.7007 55.8088C66.7554 54.7826 68.7982 54.5694 70.9006 54.1372C73.337 53.6363 75.2902 53.8023 81.4529 53.4702C85.7113 53.2408 93.4607 53.1382 97.9705 53.1353C102.48 53.1325 103.519 53.3214 109.958 53.5604C116.397 53.7994 128.205 54.0828 134.24 54.4177C140.275 54.7526 140.181 55.1304 137.582 56.2697C134.983 57.4089 129.882 59.2981 119.556 61.4993C109.23 63.7005 93.8329 66.1564 86.09 67.4216C78.3472 68.6868 78.725 68.6868 79.2975 68.6396C81.7174 68.4399 86.4192 66.5057 89.4147 65.302C89.7135 65.182 89.9858 65.063 90.2734 64.9671C90.5611 64.8712 90.8445 64.7768 90.5654 64.5392C89.5862 63.7056 87.6157 63.2511 83.8702 62.5384C81.0866 62.0086 76.4408 61.5422 72.4034 61.2503C68.366 60.9583 65.0599 60.9583 63.6874 61.1472C62.3148 61.3361 62.9761 61.714 64.1196 62.192C65.2631 62.67 66.8689 63.2368 71.4746 63.9538C76.0802 64.6709 83.637 65.521 91.4027 65.9589C99.1684 66.3969 106.914 66.3969 104.717 66.3969C102.52 66.3969 90.1461 66.3969 84.3382 66.3969C78.5304 66.3969 79.6639 66.3969 80.5312 66.3497C84.3113 66.1438 88.6462 64.3016 89.94 63.9653C90.2101 63.8951 90.3693 63.5402 90.325 63.3942C89.919 62.0583 86.8486 62.962 86.1788 62.962C85.904 62.962 87.2207 62.8675 91.5715 62.016C95.5408 61.2391 103.101 59.842 106.853 59.112C110.604 58.3821 110.32 58.3821 108.096 58.7127C101.709 59.6621 96.2058 60.7637 94.5341 61.4306C94.0423 61.6268 94.4683 61.9086 101.747 62.3838C109.027 62.8589 123.195 63.6146 129.55 64.2873C135.905 64.96 134.015 65.5267 125.91 66.7633C117.806 67.9998 103.542 69.889 95.8637 70.9567C88.1853 72.0244 87.5241 72.2133 87.3724 72.4051C87.0977 72.7524 89.7825 72.886 97.3665 71.5621C103.197 70.5444 112.885 67.9712 118.369 66.5658C123.854 65.1603 124.798 64.7825 125.049 64.5878C125.299 64.3932 124.827 64.3932 119.294 65.4795C113.761 66.5658 103.181 68.7383 97.9676 69.952C92.7537 71.1657 93.226 71.3546 103.293 71.3102C113.36 71.2658 133.008 70.9825 142.846 70.8365C152.684 70.6905 152.117 70.6905 138.507 73.666C124.896 76.6415 98.2582 82.5924 84.3468 85.7525C70.4355 88.9126 70.0577 89.1015 74.1609 89.1044C78.2642 89.1073 86.86 88.9183 101.159 87.6403C115.458 86.3622 135.2 84.0007 145.512 82.7842C155.824 81.5677 156.107 81.5677 139.392 85.3461C122.677 89.1244 88.9553 96.6812 74.3699 100.48C59.7845 104.278 65.3576 104.089 85.9398 101.583C106.522 99.077 141.944 94.2596 136.672 97.4927C131.399 100.726 84.3583 112.155 59.9834 118.138C35.6085 124.12 35.3252 124.309 35.6042 124.501C35.8833 124.693 36.7335 124.882 58.9444 122.429C81.1552 119.976 124.701 114.875 147.417 112.247C170.133 109.619 170.7 109.619 146.527 115.665C122.354 121.71 73.4239 133.801 47.9813 140.124C22.5388 146.447 22.0665 146.636 22.7678 146.781C23.469 146.925 25.3582 147.02 27.7011 146.927C30.044 146.834 32.7833 146.55 51.4334 142.295C70.0834 138.04 104.561 129.822 122.984 125.353C141.406 120.883 142.729 120.411 143.268 120.167C143.808 119.924 143.524 119.924 133.366 121.86C123.207 123.797 103.181 127.67 92.7237 129.665C82.2659 131.66 81.9825 131.66 82.3088 131.565C82.6351 131.471 83.5797 131.282 97.9519 125.706C112.324 120.13 140.095 109.173 154.827 103.197C169.558 97.2222 170.408 96.561 169.335 96.0314C168.261 95.5019 165.239 95.1241 151.591 96.8186C137.943 98.5131 113.761 102.292 99.3201 104.805C84.8792 107.318 80.9119 108.451 78.5376 109.224C76.1632 109.997 75.502 110.375 79.3648 110.57C83.2276 110.764 91.6345 110.764 104.939 109.111C118.244 107.458 136.191 104.152 144.634 102.449C153.076 100.746 151.47 100.746 127.878 105.422C104.286 110.097 58.7569 119.449 34.2632 124.597C9.76954 129.745 7.69144 130.406 7.4238 130.841C7.15617 131.276 8.76198 131.465 12.3758 131.326C15.9896 131.188 21.5627 130.715 38.6499 126.93C55.737 123.144 84.1694 116.06 81.7191 117.7C79.2689 119.34 45.0745 129.92 28.1677 135.37C11.2609 140.82 12.6778 140.82 32.8191 135.672C52.9605 130.523 91.7834 120.227 92.1827 120.166C92.582 120.104 53.3813 130.589 33.4231 135.991C13.4649 141.392 13.9372 141.392 24.76 137.614C35.5828 133.835 56.7417 126.279 68.1141 122.15C79.4864 118.02 80.431 117.548 81.201 117.069C81.971 116.589 82.5378 116.117 82.6881 115.826C82.8383 115.536 82.555 115.441 67.4371 115.346C52.3193 115.25 22.3756 115.155 19.4187 111.989C16.4619 108.824 41.3992 102.589 55.0958 99.047C68.7925 95.5048 70.4928 94.8435 70.2351 94.5501C69.9775 94.2567 67.7105 94.3512 58.3246 96.4307C48.9388 98.5103 32.5028 102.572 25.1693 104.476C17.8358 106.379 20.1029 106.001 36.5259 101.461C52.949 96.9216 83.4595 88.2314 99.3659 83.6601C115.272 79.0888 115.65 78.8999 100.731 82.9116C85.8124 86.9232 55.5853 95.1412 39.8721 99.4692C24.1589 103.797 23.8755 103.986 24.0129 104.178C24.4791 104.829 26.1511 104.753 33.5791 103.384C40.1866 102.165 52.4367 99.2745 59.3766 97.8162C66.3165 96.3578 67.5445 96.2633 68.0354 96.3563C68.5263 96.4493 68.2429 96.7327 66.9162 97.6344C65.5894 98.536 63.228 100.047 54.5963 104.038C45.9647 108.028 31.1346 114.451 23.1642 117.949C15.1938 121.447 14.5326 121.825 14.3809 122.019C14.2292 122.214 14.607 122.214 22.7835 119.852C30.96 117.491 46.9237 112.768 57.2255 109.485C67.5273 106.202 71.6835 104.501 73.9191 103.484C76.1546 102.466 76.3435 102.183 76.1575 102.037C75.9714 101.891 75.4046 101.891 70.9092 102.694C66.4138 103.497 58.0069 105.102 52.4481 106.307C44.3843 108.056 41.2418 109.33 40.8067 109.854C39.8957 110.951 44.4677 110.478 49.2551 110.053C52.9192 109.728 59.0488 108.778 60.9366 108.576C62.8243 108.374 60.2739 108.846 53.5287 110.554C46.7834 112.261 35.9205 115.19 30.2773 116.462C24.634 117.734 24.5396 117.262 24.5382 116.877C24.5367 116.492 24.6312 116.209 24.6326 115.921C24.634 115.633 24.5396 115.35 24.1603 115.157C22.0095 114.061 18.5457 115.055 12.4244 116.665C8.13517 117.793 1.67465 120.353 -2.15526 121.664C-6.8901 123.285 -8.5642 123.359 -9.61327 123.217C-10.2504 123.131 -10.1929 120.328 -9.76784 116.091C-9.35316 111.958 -7.04998 109.247 -5.38835 106.824C-2.90506 103.203 0.47816 99.9959 2.81532 98.2756C3.55355 97.7322 3.73558 98.4445 3.17026 100.106C2.60493 101.768 1.37696 104.507 -0.719761 108.091C-2.81648 111.675 -5.74472 116.02 -7.34768 118.4C-8.95063 120.78 -9.13954 121.063 -8.85903 114.455C-8.57851 107.847 -7.82284 94.3397 -7.29186 86.7672C-6.76088 79.1947 -6.4775 77.9668 -6.37875 78.326C-4.98864 83.3828 -7.4221 88.6893 -7.56951 92.3904C-7.5796 92.6437 -7.42782 92.2616 -6.24564 81.9598C-5.06347 71.658 -2.79644 51.4436 -1.58134 40.8885C-0.366251 30.3334 -0.27179 30.05 -0.223129 30.8486C-0.0596326 33.5319 -0.552308 38.4111 -0.983101 38.6916C-3.20234 40.1367 -0.752676 27.7314 -0.653923 23.7799C-0.55517 19.8283 -0.649631 20.4895 -0.745522 20.9718C-0.841412 21.4542 -0.93587 21.7375 -0.984531 22.1197C-1.09264 22.9686 -0.844274 20.2491 -0.510803 15.5247C-0.422621 14.2754 0.392289 21.0105 1.58591 27.5983C1.71375 28.3039 2.29865 28.1379 2.58776 27.8531C3.22561 27.2247 3.92164 30.5767 5.01794 36.3044C5.35884 38.0854 5.64195 37.498 5.73927 36.7809C5.8366 36.0639 5.83659 35.2138 5.83659 35.8149C5.83659 36.416 5.83659 38.4941 5.97828 39.5174C6.11997 40.5407 6.40335 40.4463 7.02163 39.2169C8.78118 35.7181 10.2189 30.8314 11.2208 29.0954C11.5768 28.4785 11.5614 33.4047 11.6086 34.9247C11.6328 35.7016 11.7532 31.5098 11.2795 25.224C10.8845 19.9825 9.55773 17.4525 9.46327 17.2593C9.18665 16.6935 8.98525 21.9923 9.2214 27.6212C9.30352 29.5788 9.92984 29.6607 10.5038 29.4732C11.8348 29.0384 12.8924 28.3268 13.797 28.4213C16.1477 28.6668 18.6087 33.3647 21.285 36.3802C23.1901 38.5267 25.4899 41.2019 26.8682 44.2447C29.2273 49.453 30.4476 51.4093 31.7829 53.0795C32.8094 54.3635 33.6964 55.2306 34.2646 56.2267C35.3903 58.2001 37.5035 61.2245 39.739 65.0802C41.9315 68.8616 44.3761 71.1599 45.6628 72.5411C48.204 75.2688 51.057 78.8885 53.2939 80.7018C54.9105 82.0122 57.2541 82.4235 59.6313 82.9001C62.5316 83.4816 65.4578 83.1907 67.8379 82.9058C72.2565 82.3771 74.6261 80.8063 75.293 80.2839C76.0306 79.7062 75.9657 78.1414 75.5878 76.6171C75.1999 75.0523 72.5422 74.7952 67.6132 74.4617C63.8235 74.2054 57.3944 74.2227 54.2271 74.0324C51.0598 73.842 51.3432 73.5586 53.2367 72.8459C58.5676 70.8393 63.4541 69.1706 64.984 68.1687C66.9649 66.8716 57.0079 69.0618 52.2878 70.0636C50.5036 70.4423 49.9292 70.4043 53.7934 70.2153C57.6577 70.0264 65.9701 69.6486 70.394 69.5956C74.8179 69.5427 75.1012 69.8261 75.2472 70.1137C75.8945 71.3893 74.5373 72.8831 74.2497 73.2638C74.134 73.4169 74.5287 73.6445 74.9581 73.7418C75.9342 73.9631 77.2938 73.6502 78.2499 73.364C78.4633 73.3001 78.0724 73.2667 71.7851 74.6363C65.4978 76.006 53.3126 78.7453 46.1852 80.5816C39.0577 82.4178 37.3575 83.2679 50.3671 81.8167C63.3768 80.3655 91.1479 76.5871 105.218 74.6406C119.288 72.6942 118.816 72.6942 101.995 75.6697C85.1741 78.6452 52.0187 84.5961 35.2221 87.6617C18.4255 90.7274 18.9922 90.7274 22.4958 89.9245C25.9994 89.1216 32.4227 87.5158 35.5899 86.6885C38.7572 85.8613 38.4738 85.8613 23.8283 89.2146C9.18275 92.5679 -19.8163 99.2745 -34.4247 102.729C-49.033 106.184 -48.3718 106.184 -35.0902 103.681C-21.8086 101.178 4.07335 96.1717 17.6898 93.5927C31.3063 91.0136 31.8731 91.0136 25.978 93.6585C20.0828 96.3034 7.70861 101.593 -1.45254 105.168C-10.6137 108.743 -16.1868 110.444 -9.7063 107.966C-3.2258 105.489 15.4772 98.7822 28.3237 94.6188C41.1702 90.4555 47.5935 89.0386 51.233 88.3087C54.8726 87.5787 55.5338 87.5787 54.8354 88.24C54.1369 88.9012 52.0588 90.2236 42.6758 94.2582C33.2928 98.2927 16.668 104.999 3.61679 109.871C-9.43437 114.743 -18.408 117.577 -23.1725 119.037C-27.937 120.496 -28.2204 120.496 -28.2247 120.496C-28.229 120.496 -27.9456 120.496 -23.2183 118.843C-18.491 117.19 -9.32846 113.884 -0.452126 111.237C8.42421 108.589 16.7367 106.7 22.3413 105.632C27.9459 104.564 30.5907 104.375 31.906 104.42C33.2213 104.464 33.1268 104.747 32.3225 105.46C31.5182 106.173 30.0068 107.306 25.4971 109.732C20.9873 112.158 13.525 115.842 18.7489 112.356C23.9728 108.869 42.1091 98.101 51.5937 92.5064C61.0783 86.9118 61.3617 86.8173 60.6103 87.3827C59.8589 87.948 58.0642 89.176 55.0143 90.7531C51.9644 92.3303 47.7137 94.2195 47.5548 94.1065C47.3959 93.9934 51.4577 91.8208 53.7391 90.6544C56.0204 89.488 56.3982 89.3935 52.2005 90.62C48.0028 91.8466 39.218 94.397 34.5509 95.7108C29.8837 97.0247 29.6003 97.0247 29.5016 96.883C28.0681 94.8262 32.5486 89.2218 32.6488 87.2023C32.6683 86.8092 32.3654 86.3479 31.3707 86.1518C28.6322 85.612 23.3317 87.6589 20.9186 87.1623C18.7269 86.7112 27.3848 79.5812 30.3016 76.5212C33.2184 73.4613 33.4073 73.0835 32.8434 73.5028C32.2796 73.9222 30.9571 75.1501 27.3948 77.7664C23.8326 80.3826 18.0705 84.3499 14.3465 86.7715C6.33135 91.9836 2.97705 93.6843 2.68937 93.8746C2.60932 93.9276 2.96846 94.065 7.93188 91.0437C12.8953 88.0224 22.5302 81.8825 27.6825 78.7196C32.8349 75.5566 33.2127 75.5566 33.5018 75.7928C35.2206 77.1967 34.747 80.3197 35.6486 82.3248C35.8312 82.7309 36.3614 82.5237 36.6977 82.2861C37.034 82.0486 37.3174 81.6707 37.5106 81.2399C37.7038 80.8091 37.7983 80.3368 37.5636 80.0935C35.8555 78.3229 31.2348 82.7985 28.5627 84.0408C27.8491 84.3726 28.9162 81.021 30.5378 76.1176C31.9452 71.8619 30.9342 68.6954 30.2201 67.3129C29.931 66.7534 29.6003 66.5915 29.2654 66.5887C26.476 66.5648 25.4956 72.6885 25.394 73.5515C24.769 78.8598 35.1277 64.5878 34.7985 65.1489C34.2772 66.0373 33.4302 68.3548 32.4713 71.4591C31.5124 74.5633 30.5678 78.4362 30.0812 81.1397C29.5946 83.8433 29.5946 85.2602 29.6418 85.8012C29.7177 86.67 32.2509 80.7433 34.3591 77.0436C34.7817 76.302 35.7917 76.4153 36.6963 76.132C37.8168 75.7809 38.3679 73.7533 39.0835 72.4638C39.2883 72.0947 39.3268 72.4022 39.2323 72.8788C39.1379 73.3554 38.949 74.0166 38.71 74.2156C38.3032 74.5541 37.0455 72.0444 35.1906 68.5222C33.3454 65.0183 30.5621 62.0231 27.8972 59.2137C25.4578 56.642 23.492 55.7115 23.0139 55.3795C20.5367 53.6588 25.0148 47.8943 24.7786 46.9854C24.3305 45.2608 22.347 48.836 21.68 48.6542C16.2354 47.1704 19.2928 40.2573 18.7217 39.6849C18.4764 39.439 18.1507 39.4902 17.7686 39.6319C15.4625 40.487 14.8074 44.0615 14.6156 45.1607C14.3153 46.8817 15.5688 39.6019 15.3799 37.1688C15.3142 36.3228 14.8131 36.3416 12.9654 39.317C11.1177 42.2925 7.81166 48.2435 5.87238 51.6397C3.53188 55.7386 2.78526 57.1341 2.82963 56.9094C3.57073 53.1561 4.59431 47.1558 3.65257 44.9818C0.728841 38.2323 -2.55886 57.4232 -2.22968 56.8164C-1.67691 55.7974 -0.86145 53.0924 -0.37484 52.155C-0.147073 51.7162 -0.171609 55.6829 -0.600971 61.7698C-0.836744 65.1123 -0.746952 68.9902 -0.699722 71.127C-0.652492 73.2638 -0.558035 73.5472 1.33259 70.576C3.22321 67.6048 6.90714 61.3705 8.80492 58.4895C10.7027 55.6085 10.7027 56.2697 8.05783 62.1834C5.41296 68.0972 0.123221 79.2434 -2.69625 85.316C-5.51573 91.3886 -5.70465 92.0498 -5.8492 92.7211C-5.99375 93.3923 -6.08821 94.0535 -5.57012 93.7801C-5.05202 93.5068 -3.91851 92.2788 0.679958 84.7507C5.27842 77.2225 13.3075 63.4314 17.4909 56.5631C21.6743 49.6947 21.7688 50.167 20.2589 56.5502C18.7489 62.9334 15.6318 75.2131 14.026 81.7752C12.4201 88.3373 12.4201 88.8096 13.8843 85.8413C15.3484 82.8729 18.2766 76.4497 19.8324 73.7075C21.3881 70.9653 21.4825 72.0988 21.3895 73.7218C21.2965 75.3448 21.0131 77.4229 20.8671 79.013C20.7211 80.603 20.7211 81.6421 21.1934 79.4853C21.6657 77.3284 22.6103 71.9442 23.0969 68.9344C23.5835 65.9246 23.5835 65.4523 23.4419 65.3507C23.3002 65.2491 23.0168 65.5324 20.9816 68.7956C18.9464 72.0587 15.1681 78.2931 13.0799 81.9298C10.5529 86.3309 10.4165 87.5759 10.5109 87.8635C11.2003 89.963 13.7483 81.1125 15.4128 75.3648C16.4389 71.8216 17.3607 66.8778 17.9904 63.025C19.0468 56.5617 18.9092 52.7632 18.6244 51.1889C18.5233 50.6299 18.1507 50.6536 17.6741 50.937C17.1975 51.2204 16.5363 51.7871 12.0394 57.8411C7.54259 63.8951 -0.769853 75.4192 -5.19371 81.6392C-9.61757 87.8593 -9.90094 88.426 -6.03239 82.4836C-2.16384 76.5413 5.86522 64.0726 10.4737 56.5631C15.0822 49.0535 16.0268 46.881 16.5134 46.0451C17 45.2093 17 45.7761 16.1971 48.7129C15.3942 51.6497 13.7884 56.9395 12.4416 62.64C11.0948 68.3405 10.0558 74.2914 9.47329 79.5769C8.89079 84.8623 8.79633 89.3019 8.88936 91.3528C8.98239 93.4037 9.26576 92.9314 10.0257 87.9652C10.7857 82.9989 12.0137 73.5529 12.6463 67.7422C13.2789 61.9315 13.2789 60.0423 12.9483 59.3997C10.829 55.2804 7.17334 68.9702 7.03022 69.5885C6.9539 69.9182 6.98156 70.3012 7.45386 70.2597C8.95525 70.1278 10.5052 69.0704 12.4044 68.7841C15.4048 68.3319 20.0256 69.537 25.6874 71.6752C28.6752 72.8035 31.6327 74.6635 34.465 76.8619C37.2974 79.0602 39.8478 81.7051 41.9173 84.1539C45.691 88.6191 47.7165 92.8084 48.7656 95.8583C50.042 99.5689 46.2996 103.03 44.6251 104.556C43.6556 105.439 47.9913 106.751 51.8441 107.846C56.1144 109.06 60.5831 109.522 63.5428 109.808C64.0535 109.858 63.9407 109.906 67.6289 109.15C71.0456 108.45 77.5515 106.883 81.1452 106.104C84.739 105.326 85.2113 105.326 85.0295 105.467C83.1595 106.925 81.3184 107.135 79.4564 107.946C76.4494 108.855 74.8236 109.236 74.2053 109.522C73.8704 109.619 73.4926 109.619 73.1033 109.619" stroke="#FF3BCF" stroke-width="10" stroke-linecap="round"/>
</g>
</g>
<g filter="url(#filter2_f_1_2)">
<path fill-rule="evenodd" clip-rule="evenodd" d="M67.778 29.7695L49.9206 57.627C49.7276 57.9287 49.2886 57.9345 49.0866 57.6387L38.3727 41.9248C38.2591 41.7586 38.2565 41.5402 38.3659 41.3711L46.2233 29.2285C46.3152 29.0861 46.4732 29 46.6427 29H67.3572C67.7523 29 67.9912 29.4369 67.778 29.7695ZM39.7464 41.077C39.5277 41.415 39.5329 41.8511 39.7597 42.1837L48.6341 55.2006C49.0379 55.7929 49.9154 55.7805 50.3022 55.177L65.4559 31.5397C65.8826 30.8741 65.4047 30 64.6141 30H47.4597C47.1205 30 46.8044 30.1719 46.6201 30.4567L39.7464 41.077ZM128.496 29.7627L119.21 44.7627C119.119 44.9102 118.958 45 118.784 45H65.2142C64.8222 45 64.5824 44.5697 64.7887 44.2363L74.0739 29.2373C74.165 29.0898 74.3259 29 74.4993 29H128.071C128.462 29 128.702 29.4297 128.496 29.7627ZM67.0551 42.4736C66.6426 43.1398 67.1218 44 67.9053 44H81.0932C81.8767 44 82.3559 43.1398 81.9435 42.4736L75.3499 31.8226C74.959 31.1911 74.0404 31.1911 73.6494 31.8226L67.0551 42.4736ZM83.7709 43.5264C83.9532 43.8208 84.2749 44 84.6212 44H117.948C118.295 44 118.616 43.8208 118.799 43.5264L126.228 31.5264C126.64 30.8602 126.161 30 125.377 30H77.1923C76.4088 30 75.9297 30.8602 76.3421 31.5264L83.7709 43.5264Z" fill="white"/>
</g>
<g filter="url(#filter3_f_1_2)">
<path fill-rule="evenodd" clip-rule="evenodd" d="M25.0007 29.2647C25.0007 29.3181 25.0168 29.3703 25.047 29.4143L50.0853 65.9573C50.4856 66.5414 51.3495 66.536 51.7423 65.9468L61.9411 50.6504C62.0338 50.5113 62.1899 50.4277 62.3571 50.4277H114.499C114.889 50.4277 115.129 50.8553 114.925 51.1885L107.069 64.0459C106.978 64.1945 106.816 64.2852 106.642 64.2852H71.0802C70.7228 64.2852 70.3926 64.4759 70.214 64.7854L51.4295 97.3437C51.4288 97.345 51.4284 97.3465 51.4284 97.348V97.3527C51.4284 97.3548 51.4267 97.3564 51.4247 97.3564C51.4234 97.3564 51.4221 97.3572 51.4215 97.3583L49.2184 101.177C49.0345 101.495 48.5804 101.514 48.3727 101.21L39.0869 87.6391C39.0867 87.6388 39.0864 87.6387 39.0861 87.6387C39.0858 87.6387 39.0855 87.6385 39.0853 87.6383L25.0079 67.525C25.0057 67.5218 25.0007 67.5234 25.0007 67.5272C25.0007 67.5311 24.9956 67.5327 24.9934 67.5295L24.0908 66.2153C24.0906 66.215 24.0905 66.2147 24.0905 66.2143C24.0905 66.214 24.0904 66.2137 24.0902 66.2135L24.0886 66.2109L-0.911445 29.7832C-1.13911 29.4512 -0.901414 29 -0.498874 29H24.736C24.8822 29 25.0007 29.1185 25.0007 29.2647ZM40.4174 86.7876C40.2192 87.1221 40.2328 87.5411 40.4524 87.862L47.8513 98.6774C48.2671 99.2852 49.1749 99.2503 49.5429 98.6124L50.2946 97.3091C50.3823 97.1571 50.4284 96.9848 50.4284 96.8094V73.5427C50.4284 72.5256 49.0866 72.1579 48.5681 73.0329L40.4174 86.7876ZM51.5964 67.9688C51.4868 68.133 51.4284 68.3261 51.4284 68.5235V91.6096C51.4284 92.6328 52.7832 92.9956 53.2946 92.1093L69.7809 63.5352C69.8697 63.3805 70.0344 63.2852 70.2128 63.2852H105.801C106.15 63.2852 106.473 63.1039 106.654 62.8066L112.678 52.9492C113.086 52.2828 112.606 51.4277 111.825 51.4277H63.1598C62.8255 51.4277 62.5133 51.5948 62.3278 51.873L51.5964 67.9688ZM25.0007 65.4572C25.0007 65.6624 25.0638 65.8626 25.1814 66.0307L38.5745 85.1644C38.9911 85.7597 39.8835 85.7259 40.254 85.1007L50.0094 68.6386C50.2078 68.3039 50.194 67.8846 49.9741 67.5636L26.8256 33.7778C26.2701 32.967 25.0007 33.3602 25.0007 34.343V65.4572ZM88.5016 70.4678L81.3591 82.6104C81.2695 82.7628 81.1059 82.8564 80.9291 82.8564H65.9281C65.5417 82.8564 65.3017 82.4365 65.4977 82.1035L72.6403 69.96C72.7299 69.8075 72.8934 69.7139 73.0702 69.7139H88.0704C88.4573 69.7139 88.6978 70.1343 88.5016 70.4678ZM67.6891 80.3494C67.2969 81.016 67.7775 81.8564 68.551 81.8564H80.0713C80.4256 81.8564 80.7536 81.6689 80.9332 81.3634L86.3106 72.2208C86.7027 71.5542 86.222 70.7139 85.4486 70.7139H73.93C73.5756 70.7139 73.2478 70.9014 73.0681 71.2068L67.6891 80.3494ZM22.1762 61.6579C22.7321 62.4679 24.0007 62.0745 24.0007 61.092V31C24.0007 30.4477 23.5529 30 23.0007 30H2.34901C1.5442 30 1.0691 30.9023 1.5245 31.5658L22.1762 61.6579Z" fill="white"/>
</g>
</g>
<defs>
<filter id="filter0_f_1_2" x="-73.8876" y="-84.972" width="288.898" height="226.098" filterUnits="userSpaceOnUse" color-interpolation-filters="sRGB">
<feFlood flood-opacity="0" result="BackgroundImageFix"/>
<feBlend mode="normal" in="SourceGraphic" in2="BackgroundImageFix" result="shape"/>
<feGaussianBlur stdDeviation="35.4" result="effect1_foregroundBlur_1_2"/>
</filter>
<filter id="filter1_f_1_2" x="-121.016" y="-77.5298" width="366.474" height="300.294" filterUnits="userSpaceOnUse" color-interpolation-filters="sRGB">
<feFlood flood-opacity="0" result="BackgroundImageFix"/>
<feBlend mode="normal" in="SourceGraphic" in2="BackgroundImageFix" result="shape"/>
<feGaussianBlur stdDeviation="35.4" result="effect1_foregroundBlur_1_2"/>
</filter>
<filter id="filter2_f_1_2" x="37.6857" y="28.4" width="91.4856" height="30.0569" filterUnits="userSpaceOnUse" color-interpolation-filters="sRGB">
<feFlood flood-opacity="0" result="BackgroundImageFix"/>
<feBlend mode="normal" in="SourceGraphic" in2="BackgroundImageFix" result="shape"/>
<feGaussianBlur stdDeviation="0.3" result="effect1_foregroundBlur_1_2"/>
</filter>
<filter id="filter3_f_1_2" x="-1.6" y="28.4" width="117.2" height="73.6271" filterUnits="userSpaceOnUse" color-interpolation-filters="sRGB">
<feFlood flood-opacity="0" result="BackgroundImageFix"/>
<feBlend mode="normal" in="SourceGraphic" in2="BackgroundImageFix" result="shape"/>
<feGaussianBlur stdDeviation="0.3" result="effect1_foregroundBlur_1_2"/>
</filter>
<clipPath id="clip0_1_2">
<rect width="128" height="128" fill="white"/>
</clipPath>
<clipPath id="clip1_1_2">
<rect width="128" height="128" fill="white"/>
</clipPath>
</defs>
</svg>
